{"title":"Simhasanam (2012) Malayalam Movie DVDRip x264 - Exclusive","uid":7963313,"size":865516314,"categoryP":"video","categoryS":"movies","magnet":"?xt=urn:btih:b215b4f6221b9c684757bbda1a1393bba68f0b48&amp;dn=Simhasanam+%282012%29+Malayalam+Movie+DVDRip+x264+-+Exclusive&amp;tr=udp%3A%2F%2Ftracker.openbittorrent.com%3A80&amp;tr=udp%3A%2F%2Fopen.demonii.com%3A1337&amp;tr=udp%3A%2F%2Ftracker.coppersurfer.tk%3A6969&amp;tr=udp%3A%2F%2Fexodus.desync.com%3A6969","seeders":4,"leechers":1,"uploader":"tykoon123","files":-1,"time":1356629078,"description":"Poster: &lt;a href=&quot;\nhttp://imgr.us/images/fc973s8ggqluhtyqbgg2.jpg&quot; rel=&quot;nofollow&quot; target=&quot;_NEW&quot;&gt;\nhttp://imgr.us/images/fc973s8ggqluhtyqbgg2.jpg&lt;/a&gt;\n\nInfo:\n\nFormat : Matroska\nFormat version : Version 2\nFile size : 825 MiB\nDuration : 2h 36mn\nOverall bit rate : 739 Kbps\nMovie name : Avidemux\nWriting application : Lavf53.24.0\nWriting library : Lavf53.24.0\nAUTHOR : Avidemux\n\nVideo\nID : 1\nFormat : AVC\nFormat/Info : Advanced Video Codec\nFormat profile : &lt;a class=&quot;__cf_email__&quot; href=&quot;/cdn-cgi/l/email-protection&quot; data-cfemail=&quot;7830111f1038344a5649&quot;&gt;[email&amp;#160;protected]&lt;/a&gt;&lt;script cf-hash='f9e31' type=&quot;text/javascript&quot;&gt;\n/* &lt;![CDATA[ */!function(){try{var t=&quot;currentScript&quot;in document?document.currentScript:function(){for(var t=document.getElementsByTagName(&quot;script&quot;),e=t.length;e--;)if(t[e].getAttribute(&quot;cf-hash&quot;))return t[e]}();if(t&amp;&amp;t.previousSibling){var e,r,n,i,c=t.previousSibling,a=c.getAttribute(&quot;data-cfemail&quot;);if(a){for(e=&quot;&quot;,r=parseInt(a.substr(0,2),16),n=2;a.length-n;n+=2)i=parseInt(a.substr(n,2),16)^r,e+=String.fromCharCode(i);e=document.createTextNode(e),c.parentNode.replaceChild(e,c)}}}catch(u){}}();/* ]]&gt; */&lt;/script&gt;\nFormat settings, CABAC : Yes\nFormat settings, ReFrames : 3 frames\nCodec ID : V_MPEG4/ISO/AVC\nDuration : 2h 36mn\nBit rate : 600 Kbps\nWidth : 688 pixels\nHeight : 288 pixels\nDisplay aspect ratio : 2.40:1\nFrame rate mode : Constant\nFrame rate : 23.976 fps\nColor space : YUV\nChroma subsampling : 4:2:0\nBit depth : 8 bits\nScan type : Progressive\nBits/(Pixel*Frame) : 0.126\nStream size : 666 MiB (81%)\nWriting library : x264 core 120 r2151 a3f4407\nDefault : Yes\nForced : No\n\nAudio\nID : 2\nFormat : AC-3\nFormat/Info : Audio Coding 3\nMode extension : CM (complete main)\nFormat settings, Endianness : Big\nCodec ID : A_AC3\nDuration : 2h 36mn\nBit rate mode : Constant\nBit rate : 128 Kbps\nChannel(s) : 6 channels\nChannel positions : Front: L C R, Side: L R, LFE\nSampling rate : 48.0 KHz\nBit depth : 16 bits\nCompression mode : Lossy\nDelay relative to video : -42ms\nStream size : 143 MiB (17%)\nDefault : Yes\nForced : No\n\n\n\nScreens: &lt;a href=&quot;\nhttp://imgr.us/images/80nvfekxcpjvbpqhkwbv.jpg&quot; rel=&quot;nofollow&quot; target=&quot;_NEW&quot;&gt;\nhttp://imgr.us/images/80nvfekxcpjvbpqhkwbv.jpg&lt;/a&gt; &lt;a href=&quot;\nhttp://imgr.us/images/mmbnekz1ambfw4gi9hv.jpg&quot; rel=&quot;nofollow&quot; target=&quot;_NEW&quot;&gt;\nhttp://imgr.us/images/mmbnekz1ambfw4gi9hv.jpg&lt;/a&gt; &lt;a href=&quot;\nhttp://imgr.us/images/mgn9cku46ynqdat6n7t.jpg&quot; rel=&quot;nofollow&quot; target=&quot;_NEW&quot;&gt;\nhttp://imgr.us/images/mgn9cku46ynqdat6n7t.jpg&lt;/a&gt; &lt;a href=&quot;\nhttp://imgr.us/images/nx3lqg4gtfnm1tn3ph91.jpg&quot; rel=&quot;nofollow&quot; target=&quot;_NEW&quot;&gt;\nhttp://imgr.us/images/nx3lqg4gtfnm1tn3ph91.jpg&lt;/a&gt; &lt;a href=&quot;\nhttp://imgr.us/images/osxti4aja24d3qopl0n.jpg&quot; rel=&quot;nofollow&quot; target=&quot;_NEW&quot;&gt;\nhttp://imgr.us/images/osxti4aja24d3qopl0n.jpg&lt;/a&gt;\n\n","torrent":{"xt":"urn:btih:b215b4f6221b9c684757bbda1a1393bba68f0b48","amp;dn":"Simhasanam+%282012%29+Malayalam+Movie+DVDRip+x264+-+Exclusive","amp;tr":["udp%3A%2F%2Ftracker.openbittorrent.com%3A80","udp%3A%2F%2Fopen.demonii.com%3A1337","udp%3A%2F%2Ftracker.coppersurfer.tk%3A6969","udp%3A%2F%2Fexodus.desync.com%3A6969"],"infoHash":"b215b4f6221b9c684757bbda1a1393bba68f0b48","infoHashBuffer":{"type":"Buffer","data":[178,21,180,246,34,27,156,104,71,87,187,218,26,19,147,187,166,143,11,72]},"announce":[],"urlList":[]}}